<svg xmlns="http://www.w3.org/2000/svg" viewBox="0 0 1280 720" width="1280" height="720">
    <defs>
        <filter id="cardShadow" x="-5%" y="-5%" width="110%" height="110%">
            <feGaussianBlur in="SourceAlpha" stdDeviation="3" />
            <feOffset dx="0" dy="1" result="offsetBlur" />
            <feFlood flood-color="#0F172A" flood-opacity="0.06" result="shadowColor" />
            <feComposite in="shadowColor" in2="offsetBlur" operator="in" result="shadow" />
            <feMerge><feMergeNode in="shadow" /><feMergeNode in="SourceGraphic" /></feMerge>
        </filter>
    </defs>
    
    <rect width="1280" height="720" fill="#FAFAFA" />
    
    <g id="page-header">
        <rect x="60" y="30" width="4" height="36" fill="#1A3A5C" />
        <text x="80" y="55" font-family="Georgia, KaiTi, serif" font-size="30" font-weight="bold" fill="#1A3A5C">原始数据表：三个指标形成可计算时间序列</text>
        <text x="80" y="78" font-family="Microsoft YaHei, PingFang SC, Arial, sans-serif" font-size="14" fill="#6B7280">2014-2023 年共 10 个年度点，既包含平稳增长阶段，也包含 2020 年后的外生冲击和恢复阶段。</text>
    </g>
    
    <g id="data-table" transform="translate(60, 110)">
        <path fill="#FFFFFF" stroke="#D1D5DB" stroke-width="1.5" filter="url(#cardShadow)" d="M6,0 H1154 A6,6 0 0 1 1160,6 V464 A6,6 0 0 1 1154,470 H6 A6,6 0 0 1 0,464 V6 A6,6 0 0 1 6,0 Z" />
        
        <path fill="#1A3A5C" d="M6,0 H1154 A6,6 0 0 1 1160,6 V38 A6,6 0 0 1 1154,44 H6 A6,6 0 0 1 0,38 V6 A6,6 0 0 1 6,0 Z" />
        <rect x="0" y="22" width="1160" height="22" fill="#1A3A5C" />
        <text x="80" y="27" text-anchor="middle" font-family="Microsoft YaHei, PingFang SC, Arial, sans-serif" font-size="13" font-weight="bold" fill="#FFFFFF">年份</text>
        <text x="320" y="27" text-anchor="middle" font-family="Microsoft YaHei, PingFang SC, Arial, sans-serif" font-size="13" font-weight="bold" fill="#FFFFFF">博物馆数量（个）</text>
        <text x="600" y="27" text-anchor="middle" font-family="Microsoft YaHei, PingFang SC, Arial, sans-serif" font-size="13" font-weight="bold" fill="#FFFFFF">国内游客（百万人次）</text>
        <text x="880" y="27" text-anchor="middle" font-family="Microsoft YaHei, PingFang SC, Arial, sans-serif" font-size="13" font-weight="bold" fill="#FFFFFF">旅游总花费（亿元）</text>
        <text x="1080" y="27" text-anchor="middle" font-family="Microsoft YaHei, PingFang SC, Arial, sans-serif" font-size="13" font-weight="bold" fill="#FFFFFF">阶段</text>
        
        <line x1="160" y1="0" x2="160" y2="470" stroke="#D1D5DB" stroke-width="1" />
        <line x1="480" y1="0" x2="480" y2="470" stroke="#D1D5DB" stroke-width="1" />
        <line x1="740" y1="0" x2="740" y2="470" stroke="#D1D5DB" stroke-width="1" />
        <line x1="1020" y1="0" x2="1020" y2="470" stroke="#D1D5DB" stroke-width="1" />
        
        
        <line x1="0" y1="44" x2="1160" y2="44" stroke="#E2E8F0" stroke-width="0.5" />
        <text x="80" y="68" text-anchor="middle" font-family="Microsoft YaHei, PingFang SC, Arial, sans-serif" font-size="15" font-weight="bold" fill="#1A3A5C">2014</text>
        <text x="320" y="68" text-anchor="middle" font-family="Microsoft YaHei, PingFang SC, Arial, sans-serif" font-size="15" fill="#1A1A2E">3,658</text>
        <text x="600" y="68" text-anchor="middle" font-family="Microsoft YaHei, PingFang SC, Arial, sans-serif" font-size="15" fill="#1A1A2E">3,611</text>
        <text x="880" y="68" text-anchor="middle" font-family="Microsoft YaHei, PingFang SC, Arial, sans-serif" font-size="15" fill="#1A1A2E">30,311.9</text>
        <path fill="#2E7D32" fill-opacity="0.12" d="M1039,55 H1091 A4,4 0 0 1 1095,59 V73 A4,4 0 0 1 1091,77 H1039 A4,4 0 0 1 1035,73 V59 A4,4 0 0 1 1039,55 Z" />
        <text x="1080" y="70" text-anchor="middle" font-family="Microsoft YaHei, PingFang SC, Arial, sans-serif" font-size="13" font-weight="bold" fill="#2E7D32">增长期</text>
        
        <line x1="0" y1="86" x2="1160" y2="86" stroke="#E2E8F0" stroke-width="0.5" />
        <rect x="0" y="86" width="1160" height="42" fill="#F0F4F8" fill-opacity="0.5" />
        <text x="80" y="110" text-anchor="middle" font-family="Microsoft YaHei, PingFang SC, Arial, sans-serif" font-size="15" font-weight="bold" fill="#1A3A5C">2015</text>
        <text x="320" y="110" text-anchor="middle" font-family="Microsoft YaHei, PingFang SC, Arial, sans-serif" font-size="15" fill="#1A1A2E">3,852</text>
        <text x="600" y="110" text-anchor="middle" font-family="Microsoft YaHei, PingFang SC, Arial, sans-serif" font-size="15" fill="#1A1A2E">4,000</text>
        <text x="880" y="110" text-anchor="middle" font-family="Microsoft YaHei, PingFang SC, Arial, sans-serif" font-size="15" fill="#1A1A2E">34,195.1</text>
        <path fill="#2E7D32" fill-opacity="0.12" d="M1039,97 H1091 A4,4 0 0 1 1095,101 V115 A4,4 0 0 1 1091,119 H1039 A4,4 0 0 1 1035,115 V101 A4,4 0 0 1 1039,97 Z" />
        <text x="1080" y="112" text-anchor="middle" font-family="Microsoft YaHei, PingFang SC, Arial, sans-serif" font-size="13" font-weight="bold" fill="#2E7D32">增长期</text>
        
        <line x1="0" y1="128" x2="1160" y2="128" stroke="#E2E8F0" stroke-width="0.5" />
        <text x="80" y="152" text-anchor="middle" font-family="Microsoft YaHei, PingFang SC, Arial, sans-serif" font-size="15" font-weight="bold" fill="#1A3A5C">2016</text>
        <text x="320" y="152" text-anchor="middle" font-family="Microsoft YaHei, PingFang SC, Arial, sans-serif" font-size="15" fill="#1A1A2E">4,109</text>
        <text x="600" y="152" text-anchor="middle" font-family="Microsoft YaHei, PingFang SC, Arial, sans-serif" font-size="15" fill="#1A1A2E">4,440</text>
        <text x="880" y="152" text-anchor="middle" font-family="Microsoft YaHei, PingFang SC, Arial, sans-serif" font-size="15" fill="#1A1A2E">39,390.0</text>
        <path fill="#2E7D32" fill-opacity="0.12" d="M1039,139 H1091 A4,4 0 0 1 1095,143 V157 A4,4 0 0 1 1091,161 H1039 A4,4 0 0 1 1035,157 V143 A4,4 0 0 1 1039,139 Z" />
        <text x="1080" y="154" text-anchor="middle" font-family="Microsoft YaHei, PingFang SC, Arial, sans-serif" font-size="13" font-weight="bold" fill="#2E7D32">增长期</text>
        
        <line x1="0" y1="170" x2="1160" y2="170" stroke="#E2E8F0" stroke-width="0.5" />
        <rect x="0" y="170" width="1160" height="42" fill="#F0F4F8" fill-opacity="0.5" />
        <text x="80" y="194" text-anchor="middle" font-family="Microsoft YaHei, PingFang SC, Arial, sans-serif" font-size="15" font-weight="bold" fill="#1A3A5C">2017</text>
        <text x="320" y="194" text-anchor="middle" font-family="Microsoft YaHei, PingFang SC, Arial, sans-serif" font-size="15" fill="#1A1A2E">4,721</text>
        <text x="600" y="194" text-anchor="middle" font-family="Microsoft YaHei, PingFang SC, Arial, sans-serif" font-size="15" fill="#1A1A2E">5,001</text>
        <text x="880" y="194" text-anchor="middle" font-family="Microsoft YaHei, PingFang SC, Arial, sans-serif" font-size="15" fill="#1A1A2E">45,660.9</text>
        <path fill="#2E7D32" fill-opacity="0.12" d="M1039,181 H1091 A4,4 0 0 1 1095,185 V199 A4,4 0 0 1 1091,203 H1039 A4,4 0 0 1 1035,199 V185 A4,4 0 0 1 1039,181 Z" />
        <text x="1080" y="196" text-anchor="middle" font-family="Microsoft YaHei, PingFang SC, Arial, sans-serif" font-size="13" font-weight="bold" fill="#2E7D32">增长期</text>
        
        <line x1="0" y1="212" x2="1160" y2="212" stroke="#E2E8F0" stroke-width="0.5" />
        <text x="80" y="236" text-anchor="middle" font-family="Microsoft YaHei, PingFang SC, Arial, sans-serif" font-size="15" font-weight="bold" fill="#1A3A5C">2018</text>
        <text x="320" y="236" text-anchor="middle" font-family="Microsoft YaHei, PingFang SC, Arial, sans-serif" font-size="15" fill="#1A1A2E">4,918</text>
        <text x="600" y="236" text-anchor="middle" font-family="Microsoft YaHei, PingFang SC, Arial, sans-serif" font-size="15" fill="#1A1A2E">5,539</text>
        <text x="880" y="236" text-anchor="middle" font-family="Microsoft YaHei, PingFang SC, Arial, sans-serif" font-size="15" fill="#1A1A2E">51,278.3</text>
        <path fill="#2E7D32" fill-opacity="0.12" d="M1039,223 H1091 A4,4 0 0 1 1095,227 V241 A4,4 0 0 1 1091,245 H1039 A4,4 0 0 1 1035,241 V227 A4,4 0 0 1 1039,223 Z" />
        <text x="1080" y="238" text-anchor="middle" font-family="Microsoft YaHei, PingFang SC, Arial, sans-serif" font-size="13" font-weight="bold" fill="#2E7D32">增长期</text>
        
        <line x1="0" y1="254" x2="1160" y2="254" stroke="#E2E8F0" stroke-width="0.5" />
        <rect x="0" y="254" width="1160" height="42" fill="#F0F4F8" fill-opacity="0.5" />
        <text x="80" y="278" text-anchor="middle" font-family="Microsoft YaHei, PingFang SC, Arial, sans-serif" font-size="15" font-weight="bold" fill="#1A3A5C">2019</text>
        <text x="320" y="278" text-anchor="middle" font-family="Microsoft YaHei, PingFang SC, Arial, sans-serif" font-size="15" fill="#1A1A2E">5,132</text>
        <text x="600" y="278" text-anchor="middle" font-family="Microsoft YaHei, PingFang SC, Arial, sans-serif" font-size="15" fill="#1A1A2E">6,006</text>
        <text x="880" y="278" text-anchor="middle" font-family="Microsoft YaHei, PingFang SC, Arial, sans-serif" font-size="15" fill="#1A1A2E">57,251.0</text>
        <path fill="#1A3A5C" fill-opacity="0.12" d="M1039,265 H1091 A4,4 0 0 1 1095,269 V283 A4,4 0 0 1 1091,287 H1039 A4,4 0 0 1 1035,283 V269 A4,4 0 0 1 1039,265 Z" />
        <text x="1080" y="280" text-anchor="middle" font-family="Microsoft YaHei, PingFang SC, Arial, sans-serif" font-size="13" font-weight="bold" fill="#1A3A5C">高点</text>
        
        <line x1="0" y1="296" x2="1160" y2="296" stroke="#E2E8F0" stroke-width="0.5" />
        <rect x="0" y="296" width="1160" height="42" fill="#C62828" fill-opacity="0.06" />
        <text x="80" y="320" text-anchor="middle" font-family="Microsoft YaHei, PingFang SC, Arial, sans-serif" font-size="15" font-weight="bold" fill="#C62828">2020</text>
        <text x="320" y="320" text-anchor="middle" font-family="Microsoft YaHei, PingFang SC, Arial, sans-serif" font-size="15" fill="#1A1A2E">5,446</text>
        <text x="600" y="320" text-anchor="middle" font-family="Microsoft YaHei, PingFang SC, Arial, sans-serif" font-size="15" font-weight="bold" fill="#C62828">2,879</text>
        <text x="880" y="320" text-anchor="middle" font-family="Microsoft YaHei, PingFang SC, Arial, sans-serif" font-size="15" font-weight="bold" fill="#C62828">22,286.3</text>
        <path fill="#C62828" fill-opacity="0.12" d="M1039,307 H1091 A4,4 0 0 1 1095,311 V325 A4,4 0 0 1 1091,329 H1039 A4,4 0 0 1 1035,325 V311 A4,4 0 0 1 1039,307 Z" />
        <text x="1080" y="322" text-anchor="middle" font-family="Microsoft YaHei, PingFang SC, Arial, sans-serif" font-size="13" font-weight="bold" fill="#C62828">冲击</text>
        
        <line x1="0" y1="338" x2="1160" y2="338" stroke="#E2E8F0" stroke-width="0.5" />
        <text x="80" y="362" text-anchor="middle" font-family="Microsoft YaHei, PingFang SC, Arial, sans-serif" font-size="15" font-weight="bold" fill="#1A3A5C">2021</text>
        <text x="320" y="362" text-anchor="middle" font-family="Microsoft YaHei, PingFang SC, Arial, sans-serif" font-size="15" fill="#1A1A2E">5,772</text>
        <text x="600" y="362" text-anchor="middle" font-family="Microsoft YaHei, PingFang SC, Arial, sans-serif" font-size="15" fill="#1A1A2E">3,246</text>
        <text x="880" y="362" text-anchor="middle" font-family="Microsoft YaHei, PingFang SC, Arial, sans-serif" font-size="15" fill="#1A1A2E">29,191.0</text>
        <path fill="#C8963E" fill-opacity="0.12" d="M1039,349 H1091 A4,4 0 0 1 1095,353 V367 A4,4 0 0 1 1091,371 H1039 A4,4 0 0 1 1035,367 V353 A4,4 0 0 1 1039,349 Z" />
        <text x="1080" y="364" text-anchor="middle" font-family="Microsoft YaHei, PingFang SC, Arial, sans-serif" font-size="13" font-weight="bold" fill="#C8963E">修复</text>
        
        <line x1="0" y1="380" x2="1160" y2="380" stroke="#E2E8F0" stroke-width="0.5" />
        <rect x="0" y="380" width="1160" height="42" fill="#F0F4F8" fill-opacity="0.5" />
        <text x="80" y="404" text-anchor="middle" font-family="Microsoft YaHei, PingFang SC, Arial, sans-serif" font-size="15" font-weight="bold" fill="#1A3A5C">2022</text>
        <text x="320" y="404" text-anchor="middle" font-family="Microsoft YaHei, PingFang SC, Arial, sans-serif" font-size="15" fill="#1A1A2E">6,565</text>
        <text x="600" y="404" text-anchor="middle" font-family="Microsoft YaHei, PingFang SC, Arial, sans-serif" font-size="15" fill="#1A1A2E">2,530</text>
        <text x="880" y="404" text-anchor="middle" font-family="Microsoft YaHei, PingFang SC, Arial, sans-serif" font-size="15" fill="#1A1A2E">20,444.0</text>
        <path fill="#6B7280" fill-opacity="0.12" d="M1039,391 H1091 A4,4 0 0 1 1095,395 V409 A4,4 0 0 1 1091,413 H1039 A4,4 0 0 1 1035,409 V395 A4,4 0 0 1 1039,391 Z" />
        <text x="1080" y="406" text-anchor="middle" font-family="Microsoft YaHei, PingFang SC, Arial, sans-serif" font-size="13" font-weight="bold" fill="#6B7280">波动</text>
        
        <line x1="0" y1="422" x2="1160" y2="422" stroke="#CBD5E1" stroke-width="1.5" />
        <text x="80" y="446" text-anchor="middle" font-family="Microsoft YaHei, PingFang SC, Arial, sans-serif" font-size="15" font-weight="bold" fill="#1A3A5C">2023</text>
        <text x="320" y="446" text-anchor="middle" font-family="Microsoft YaHei, PingFang SC, Arial, sans-serif" font-size="15" font-weight="bold" fill="#2E6B8F">6,833</text>
        <text x="600" y="446" text-anchor="middle" font-family="Microsoft YaHei, PingFang SC, Arial, sans-serif" font-size="15" font-weight="bold" fill="#2E6B8F">4,891</text>
        <text x="880" y="446" text-anchor="middle" font-family="Microsoft YaHei, PingFang SC, Arial, sans-serif" font-size="15" font-weight="bold" fill="#2E6B8F">49,133.1</text>
        <path fill="#2E6B8F" fill-opacity="0.12" d="M1039,433 H1091 A4,4 0 0 1 1095,437 V451 A4,4 0 0 1 1091,455 H1039 A4,4 0 0 1 1035,451 V437 A4,4 0 0 1 1039,433 Z" />
        <text x="1080" y="448" text-anchor="middle" font-family="Microsoft YaHei, PingFang SC, Arial, sans-serif" font-size="13" font-weight="bold" fill="#2E6B8F">恢复</text>
    </g>
    
    <g id="page-footer">
        <text x="60" y="610" font-family="Microsoft YaHei, PingFang SC, Arial, sans-serif" font-size="12" fill="#6B7280">注：旅游总花费单位为亿元，国内游客单位为百万人次；小数来自统计年鉴原始数值。</text>
        <text x="60" y="695" font-family="Microsoft YaHei, PingFang SC, Arial, sans-serif" font-size="12" fill="#9CA3AF">Source: 国家统计局国家数据、中国统计年鉴；团队整理</text>
        <text x="1220" y="695" text-anchor="end" font-family="Microsoft YaHei, PingFang SC, Arial, sans-serif" font-size="11" fill="#9CA3AF">04 / 12</text>
    </g>
</svg>