<svg xmlns="http://www.w3.org/2000/svg" viewBox="0 0 1280 720" width="1280" height="720">
    <defs>
        <filter id="cardShadow" x="-10%" y="-10%" width="120%" height="120%">
            <feGaussianBlur in="SourceAlpha" stdDeviation="3" />
            <feOffset dx="0" dy="2" result="offsetBlur" />
            <feFlood flood-color="#0F172A" flood-opacity="0.06" result="shadowColor" />
            <feComposite in="shadowColor" in2="offsetBlur" operator="in" result="shadow" />
            <feMerge><feMergeNode in="shadow" /><feMergeNode in="SourceGraphic" /></feMerge>
        </filter>
    </defs>
    
    <rect width="1280" height="720" fill="#FAFAFA" />
    
    <g id="page-header">
        <rect x="60" y="30" width="4" height="36" fill="#1A3A5C" />
        <text x="80" y="55" font-family="Georgia, KaiTi, serif" font-size="30" font-weight="bold" fill="#1A3A5C">算法一：三点公式把"趋势"转化为年度边际变化</text>
        <text x="80" y="80" font-family="Microsoft YaHei, PingFang SC, Arial, sans-serif" font-size="14" fill="#6B7280">年度间隔 h=1，中心差分近似导数；端点用单侧差分，避免丢失首尾年份。</text>
    </g>
    
    <g id="formula-column" transform="translate(60, 120)">
        <text x="0" y="20" font-family="Microsoft YaHei, PingFang SC, Arial, sans-serif" font-size="16" font-weight="bold" fill="#1A3A5C">核心公式</text>
        
        <path fill="#FFFFFF" stroke="#1A3A5C" stroke-width="1.5" filter="url(#cardShadow)" d="M8,40 H552 A8,8 0 0 1 560,48 V142 A8,8 0 0 1 552,150 H8 A8,8 0 0 1 0,142 V48 A8,8 0 0 1 8,40 Z" />
        <path fill="#1A3A5C" d="M3,40 H557 A3,3 0 0 1 560,43 V43 A3,3 0 0 1 557,46 H3 A3,3 0 0 1 0,43 V43 A3,3 0 0 1 3,40 Z" />
        <text x="280" y="80" text-anchor="middle" font-family="Consolas, Courier New, monospace" font-size="22" font-weight="bold" fill="#1A1A2E">f'(x_i) ≈ [f(x_{i+1}) - f(x_{i-1})] / 2h</text>
        <text x="280" y="110" text-anchor="middle" font-family="Microsoft YaHei, PingFang SC, Arial, sans-serif" font-size="14" fill="#6B7280">中心差分 · 二阶精度 · h=1 时直接解释为"每年边际变化"</text>
        
        <path fill="#F0F4F8" stroke="#D1D5DB" stroke-width="1" d="M8,175 H552 A8,8 0 0 1 560,183 V247 A8,8 0 0 1 552,255 H8 A8,8 0 0 1 0,247 V183 A8,8 0 0 1 8,175 Z" />
        <text x="20" y="200" font-family="Microsoft YaHei, PingFang SC, Arial, sans-serif" font-size="15" font-weight="bold" fill="#2E6B8F">端点处理：</text>
        <text x="150" y="200" font-family="Consolas, Courier New, monospace" font-size="16" fill="#1A1A2E">f'(x_0) ≈ f(x_1) - f(x_0)</text>
        <text x="150" y="228" font-family="Consolas, Courier New, monospace" font-size="16" fill="#1A1A2E">f'(x_n) ≈ f(x_n) - f(x_{n-1})</text>
        <text x="20" y="228" font-family="Microsoft YaHei, PingFang SC, Arial, sans-serif" font-size="14" fill="#6B7280">首尾点用单侧差分</text>
        
        <path fill="#1A3A5C" fill-opacity="0.06" d="M8,280 H552 A8,8 0 0 1 560,288 V332 A8,8 0 0 1 552,340 H8 A8,8 0 0 1 0,332 V288 A8,8 0 0 1 8,280 Z" />
        
  <g transform="translate(20.0, 310.0) scale(0.078125)" fill="#C8963E">
    <path d="M208,104a79.86,79.86,0,0,1-30.59,62.92A24.29,24.29,0,0,0,168,186v6a8,8,0,0,1-8,8H96a8,8,0,0,1-8-8v-6a24.11,24.11,0,0,0-9.3-19A79.87,79.87,0,0,1,48,104.45C47.76,61.09,82.72,25,126.07,24A80,80,0,0,1,208,104Z" opacity="0.2" />
    <path d="M176,232a8,8,0,0,1-8,8H88a8,8,0,0,1,0-16h80A8,8,0,0,1,176,232Zm40-128a87.55,87.55,0,0,1-33.64,69.21A16.24,16.24,0,0,0,176,186v6a16,16,0,0,1-16,16H96a16,16,0,0,1-16-16v-6a16,16,0,0,0-6.23-12.66A87.59,87.59,0,0,1,40,104.49C39.74,56.83,78.26,17.14,125.88,16A88,88,0,0,1,216,104Zm-16,0a72,72,0,0,0-73.74-72c-39,.92-70.47,33.39-70.26,72.39a71.65,71.65,0,0,0,27.64,56.3A32,32,0,0,1,96,186v6h64v-6a32.15,32.15,0,0,1,12.47-25.35A71.65,71.65,0,0,0,200,104Zm-16.11-9.34a57.6,57.6,0,0,0-46.56-46.55,8,8,0,0,0-2.66,15.78c16.57,2.79,30.63,16.85,33.44,33.45A8,8,0,0,0,176,104a9,9,0,0,0,1.35-.11A8,8,0,0,0,183.89,94.66Z" />
  </g>
        <text x="50" y="318" font-family="Microsoft YaHei, PingFang SC, Arial, sans-serif" font-size="14" font-weight="bold" fill="#1A3A5C">物理/社会意义：</text>
        <text x="220" y="318" font-family="Microsoft YaHei, PingFang SC, Arial, sans-serif" font-size="14" fill="#6B7280">差分值越大，说明该指标在该年度附近扩张或恢复越快。</text>
    </g>
    
    <g id="steps-column" transform="translate(670, 120)">
        <text x="0" y="20" font-family="Microsoft YaHei, PingFang SC, Arial, sans-serif" font-size="16" font-weight="bold" fill="#1A3A5C">计算流程</text>
        
        <g transform="translate(0, 40)">
            <path fill="#FFFFFF" stroke="#D1D5DB" stroke-width="1" filter="url(#cardShadow)" d="M8,0 H542 A8,8 0 0 1 550,8 V54 A8,8 0 0 1 542,62 H8 A8,8 0 0 1 0,54 V8 A8,8 0 0 1 8,0 Z" />
            <circle cx="30" cy="31" r="16" fill="#1A3A5C" />
            <text x="30" y="36" text-anchor="middle" font-family="Microsoft YaHei, PingFang SC, Arial, sans-serif" font-size="13" font-weight="bold" fill="#FFFFFF">1</text>
            <text x="60" y="28" font-family="Microsoft YaHei, PingFang SC, Arial, sans-serif" font-size="15" font-weight="bold" fill="#1A1A2E">读取年度序列 f(x)</text>
            <text x="60" y="48" font-family="Microsoft YaHei, PingFang SC, Arial, sans-serif" font-size="13" fill="#6B7280">输入：2014-2023 年共 10 个离散点</text>
        </g>
        
        <g transform="translate(0, 117)">
            <path fill="#FFFFFF" stroke="#D1D5DB" stroke-width="1" filter="url(#cardShadow)" d="M8,0 H542 A8,8 0 0 1 550,8 V54 A8,8 0 0 1 542,62 H8 A8,8 0 0 1 0,54 V8 A8,8 0 0 1 8,0 Z" />
            <circle cx="30" cy="31" r="16" fill="#2E6B8F" />
            <text x="30" y="36" text-anchor="middle" font-family="Microsoft YaHei, PingFang SC, Arial, sans-serif" font-size="13" font-weight="bold" fill="#FFFFFF">2</text>
            <text x="60" y="28" font-family="Microsoft YaHei, PingFang SC, Arial, sans-serif" font-size="15" font-weight="bold" fill="#1A1A2E">内部点用中心差分</text>
            <text x="60" y="48" font-family="Microsoft YaHei, PingFang SC, Arial, sans-serif" font-size="13" fill="#6B7280">i = 1..n-1: (f[i+1] - f[i-1]) / 2</text>
        </g>
        
        <g transform="translate(0, 194)">
            <path fill="#FFFFFF" stroke="#D1D5DB" stroke-width="1" filter="url(#cardShadow)" d="M8,0 H542 A8,8 0 0 1 550,8 V54 A8,8 0 0 1 542,62 H8 A8,8 0 0 1 0,54 V8 A8,8 0 0 1 8,0 Z" />
            <circle cx="30" cy="31" r="16" fill="#C8963E" />
            <text x="30" y="36" text-anchor="middle" font-family="Microsoft YaHei, PingFang SC, Arial, sans-serif" font-size="13" font-weight="bold" fill="#FFFFFF">3</text>
            <text x="60" y="28" font-family="Microsoft YaHei, PingFang SC, Arial, sans-serif" font-size="15" font-weight="bold" fill="#1A1A2E">首尾点用单侧差分</text>
            <text x="60" y="48" font-family="Microsoft YaHei, PingFang SC, Arial, sans-serif" font-size="13" fill="#6B7280">前端：f[1]-f[0]；末端：f[n]-f[n-1]</text>
        </g>
        
        <g transform="translate(0, 271)">
            <path fill="#FFFFFF" stroke="#D1D5DB" stroke-width="1" filter="url(#cardShadow)" d="M8,0 H542 A8,8 0 0 1 550,8 V54 A8,8 0 0 1 542,62 H8 A8,8 0 0 1 0,54 V8 A8,8 0 0 1 8,0 Z" />
            <circle cx="30" cy="31" r="16" fill="#2E7D32" />
            <text x="30" y="36" text-anchor="middle" font-family="Microsoft YaHei, PingFang SC, Arial, sans-serif" font-size="13" font-weight="bold" fill="#FFFFFF">4</text>
            <text x="60" y="28" font-family="Microsoft YaHei, PingFang SC, Arial, sans-serif" font-size="15" font-weight="bold" fill="#1A1A2E">比较变化率，定位拐点</text>
            <text x="60" y="48" font-family="Microsoft YaHei, PingFang SC, Arial, sans-serif" font-size="13" fill="#6B7280">输出：各年度边际变化序列，识别最大正/负差分</text>
        </g>
    </g>
    
    <g id="page-footer">
        <text x="60" y="695" font-family="Microsoft YaHei, PingFang SC, Arial, sans-serif" font-size="12" fill="#9CA3AF">Source: 课程数值微分公式；团队 Python 实现</text>
        <text x="1220" y="695" text-anchor="end" font-family="Microsoft YaHei, PingFang SC, Arial, sans-serif" font-size="11" fill="#9CA3AF">06 / 12</text>
    </g>
</svg>