<svg xmlns="http://www.w3.org/2000/svg" viewBox="0 0 1280 720" width="1280" height="720">
    <defs>
        <filter id="dotShadow" x="-15%" y="-15%" width="130%" height="130%">
            <feGaussianBlur in="SourceAlpha" stdDeviation="2" />
            <feOffset dx="0" dy="1" result="offsetBlur" />
            <feFlood flood-color="#0F172A" flood-opacity="0.15" result="shadowColor" />
            <feComposite in="shadowColor" in2="offsetBlur" operator="in" result="shadow" />
            <feMerge><feMergeNode in="shadow" /><feMergeNode in="SourceGraphic" /></feMerge>
        </filter>
    </defs>
    
    <rect width="1280" height="720" fill="#FAFAFA" />
    
    <g id="page-header">
        <rect x="60" y="30" width="4" height="36" fill="#1A3A5C" />
        <text x="80" y="55" font-family="Georgia, KaiTi, serif" font-size="30" font-weight="bold" fill="#1A3A5C">变化率：2020 年冲击与 2023 年修复被差分清晰捕捉</text>
        <text x="80" y="78" font-family="Microsoft YaHei, PingFang SC, Arial, sans-serif" font-size="14" fill="#6B7280">博物馆增量相对稳定，游客变化率在 2020 年附近急剧转负，2023 年显著转正。</text>
    </g>
    
    <g id="chartArea">
        
        <rect x="766" y="145" width="105" height="415" fill="#C62828" fill-opacity="0.04" />
        <text x="818" y="162" text-anchor="middle" font-family="Microsoft YaHei, PingFang SC, Arial, sans-serif" font-size="12" font-weight="bold" fill="#C62828">2020 冲击</text>
        <line x1="766" y1="168" x2="766" y2="560" stroke="#C62828" stroke-width="1" stroke-dasharray="4,4" />
        
        <line x1="140" y1="560" x2="1080" y2="560" stroke="#D1D5DB" stroke-width="1.5" />
        <line x1="140" y1="465" x2="1080" y2="465" stroke="#E2E8F0" stroke-width="0.5" stroke-dasharray="4,4" />
        <line x1="140" y1="370" x2="1080" y2="370" stroke="#E2E8F0" stroke-width="0.5" stroke-dasharray="4,4" />
        <line x1="140" y1="275" x2="1080" y2="275" stroke="#E2E8F0" stroke-width="0.5" stroke-dasharray="4,4" />
        <line x1="140" y1="180" x2="1080" y2="180" stroke="#D1D5DB" stroke-width="1" />
        
        <line x1="140" y1="370" x2="1080" y2="370" stroke="#9CA3AF" stroke-width="1" stroke-dasharray="6,4" />
        
        <text x="125" y="565" text-anchor="end" font-family="Microsoft YaHei, PingFang SC, Arial, sans-serif" font-size="13" font-weight="bold" fill="#1A3A5C">0</text>
        <text x="125" y="465" text-anchor="end" font-family="Microsoft YaHei, PingFang SC, Arial, sans-serif" font-size="12" fill="#6B7280">200</text>
        <text x="125" y="370" text-anchor="end" font-family="Microsoft YaHei, PingFang SC, Arial, sans-serif" font-size="12" fill="#6B7280">400</text>
        <text x="125" y="275" text-anchor="end" font-family="Microsoft YaHei, PingFang SC, Arial, sans-serif" font-size="12" fill="#6B7280">600</text>
        <text x="125" y="185" text-anchor="end" font-family="Microsoft YaHei, PingFang SC, Arial, sans-serif" font-size="13" font-weight="bold" fill="#1A3A5C">800</text>
        <text x="30" y="370" text-anchor="middle" font-family="Microsoft YaHei, PingFang SC, Arial, sans-serif" font-size="14" font-weight="bold" fill="#1A3A5C" transform="rotate(-90, 30, 370)">博物馆年度增量（个）</text>
        
        <text x="1095" y="565" text-anchor="start" font-family="Microsoft YaHei, PingFang SC, Arial, sans-serif" font-size="13" font-weight="bold" fill="#2E6B8F">-2000</text>
        <text x="1095" y="465" text-anchor="start" font-family="Microsoft YaHei, PingFang SC, Arial, sans-serif" font-size="12" fill="#6B7280">-1000</text>
        <text x="1095" y="370" text-anchor="start" font-family="Microsoft YaHei, PingFang SC, Arial, sans-serif" font-size="12" fill="#6B7280">0</text>
        <text x="1095" y="275" text-anchor="start" font-family="Microsoft YaHei, PingFang SC, Arial, sans-serif" font-size="12" fill="#6B7280">+1000</text>
        <text x="1095" y="185" text-anchor="start" font-family="Microsoft YaHei, PingFang SC, Arial, sans-serif" font-size="13" font-weight="bold" fill="#2E6B8F">+2000</text>
        <text x="1245" y="370" text-anchor="middle" font-family="Microsoft YaHei, PingFang SC, Arial, sans-serif" font-size="14" font-weight="bold" fill="#2E6B8F" transform="rotate(90, 1245, 370)">游客年度变化（百万人次/年）</text>
        
        <line x1="140" y1="180" x2="140" y2="560" stroke="#94A3B8" stroke-width="2" />
        <line x1="140" y1="560" x2="1080" y2="560" stroke="#94A3B8" stroke-width="2" />
        <line x1="1080" y1="180" x2="1080" y2="560" stroke="#94A3B8" stroke-width="2" />
        
        <text x="140" y="585" text-anchor="middle" font-family="Microsoft YaHei, PingFang SC, Arial, sans-serif" font-size="12" fill="#6B7280">2014</text>
        <text x="348" y="585" text-anchor="middle" font-family="Microsoft YaHei, PingFang SC, Arial, sans-serif" font-size="12" fill="#6B7280">2016</text>
        <text x="557" y="585" text-anchor="middle" font-family="Microsoft YaHei, PingFang SC, Arial, sans-serif" font-size="12" fill="#6B7280">2018</text>
        <text x="766" y="585" text-anchor="middle" font-family="Microsoft YaHei, PingFang SC, Arial, sans-serif" font-size="12" fill="#C62828">2020</text>
        <text x="975" y="585" text-anchor="middle" font-family="Microsoft YaHei, PingFang SC, Arial, sans-serif" font-size="12" fill="#6B7280">2022</text>
        <text x="1080" y="585" text-anchor="middle" font-family="Microsoft YaHei, PingFang SC, Arial, sans-serif" font-size="12" fill="#2E6B8F">2023</text>
        
        
        <path fill="#1A3A5C" fill-opacity="0.7" d="M228,468 H252 A3,3 0 0 1 255,471 V557 A3,3 0 0 1 252,560 H228 A3,3 0 0 1 225,557 V471 A3,3 0 0 1 228,468 Z" />
        <path fill="#1A3A5C" fill-opacity="0.7" d="M332,462 H356 A3,3 0 0 1 359,465 V557 A3,3 0 0 1 356,560 H332 A3,3 0 0 1 329,557 V465 A3,3 0 0 1 332,462 Z" />
        <path fill="#1A3A5C" fill-opacity="0.7" d="M437,350 H461 A3,3 0 0 1 464,353 V557 A3,3 0 0 1 461,560 H437 A3,3 0 0 1 434,557 V353 A3,3 0 0 1 437,350 Z" />
        <path fill="#1A3A5C" fill-opacity="0.7" d="M541,448 H565 A3,3 0 0 1 568,451 V557 A3,3 0 0 1 565,560 H541 A3,3 0 0 1 538,557 V451 A3,3 0 0 1 541,448 Z" />
        <path fill="#1A3A5C" fill-opacity="0.7" d="M646,410 H670 A3,3 0 0 1 673,413 V557 A3,3 0 0 1 670,560 H646 A3,3 0 0 1 643,557 V413 A3,3 0 0 1 646,410 Z" />
        <path fill="#1A3A5C" fill-opacity="0.7" d="M750,430 H774 A3,3 0 0 1 777,433 V557 A3,3 0 0 1 774,560 H750 A3,3 0 0 1 747,557 V433 A3,3 0 0 1 750,430 Z" />
        <path fill="#1A3A5C" fill-opacity="0.7" d="M854,390 H878 A3,3 0 0 1 881,393 V557 A3,3 0 0 1 878,560 H854 A3,3 0 0 1 851,557 V393 A3,3 0 0 1 854,390 Z" />
        <path fill="#1A3A5C" fill-opacity="0.7" d="M959,316 H983 A3,3 0 0 1 986,319 V557 A3,3 0 0 1 983,560 H959 A3,3 0 0 1 956,557 V319 A3,3 0 0 1 959,316 Z" />
        <path fill="#2E6B8F" fill-opacity="0.8" d="M1060,370 H1084 A3,3 0 0 1 1087,373 V557 A3,3 0 0 1 1084,560 H1060 A3,3 0 0 1 1057,557 V373 A3,3 0 0 1 1060,370 Z" />
        
        <polyline points="140,340 244,290 349,240 453,180 557,194 662,270 766,555 871,412 975,560 1080,198" fill="none" stroke="#2E6B8F" stroke-width="3" stroke-linecap="round" stroke-linejoin="round" />
        
        <circle cx="140" cy="340" r="5" fill="#2E6B8F" stroke="#FFFFFF" stroke-width="2" filter="url(#dotShadow)" />
        <circle cx="244" cy="290" r="5" fill="#2E6B8F" stroke="#FFFFFF" stroke-width="2" filter="url(#dotShadow)" />
        <circle cx="349" cy="240" r="5" fill="#2E6B8F" stroke="#FFFFFF" stroke-width="2" filter="url(#dotShadow)" />
        <circle cx="453" cy="180" r="5" fill="#2E6B8F" stroke="#FFFFFF" stroke-width="2" filter="url(#dotShadow)" />
        <circle cx="557" cy="194" r="5" fill="#2E6B8F" stroke="#FFFFFF" stroke-width="2" filter="url(#dotShadow)" />
        <circle cx="662" cy="270" r="5" fill="#2E6B8F" stroke="#FFFFFF" stroke-width="2" filter="url(#dotShadow)" />
        <circle cx="766" cy="555" r="7" fill="#C62828" stroke="#FFFFFF" stroke-width="2.5" filter="url(#dotShadow)" />
        <circle cx="871" cy="412" r="5" fill="#2E6B8F" stroke="#FFFFFF" stroke-width="2" filter="url(#dotShadow)" />
        <circle cx="975" cy="558" r="5" fill="#2E6B8F" stroke="#FFFFFF" stroke-width="2" filter="url(#dotShadow)" />
        <circle cx="1080" cy="198" r="7" fill="#2E7D32" stroke="#FFFFFF" stroke-width="2.5" filter="url(#dotShadow)" />
        
        <path fill="#C62828" d="M750,564 H852 A4,4 0 0 1 856,568 V582 A4,4 0 0 1 852,586 H750 A4,4 0 0 1 746,582 V568 A4,4 0 0 1 750,564 Z" />
        <text x="801" y="579" text-anchor="middle" font-family="Microsoft YaHei, PingFang SC, Arial, sans-serif" font-size="12" font-weight="bold" fill="#FFFFFF">-1380 百万人次/年</text>
        <path fill="#2E7D32" d="M1064,172 H1166 A4,4 0 0 1 1170,176 V190 A4,4 0 0 1 1166,194 H1064 A4,4 0 0 1 1060,190 V176 A4,4 0 0 1 1064,172 Z" />
        <text x="1115" y="187" text-anchor="middle" font-family="Microsoft YaHei, PingFang SC, Arial, sans-serif" font-size="12" font-weight="bold" fill="#FFFFFF">+2361 百万人次/年</text>
    </g>
    
    <g id="insights" transform="translate(60, 600)">
        <path fill="#F0F4F8" d="M6,0 H614 A6,6 0 0 1 620,6 V22 A6,6 0 0 1 614,28 H6 A6,6 0 0 1 0,22 V6 A6,6 0 0 1 6,0 Z" />
        <path fill="#1A3A5C" fill-opacity="0.7" d="M18,8 H26 A3,3 0 0 1 29,11 V19 A3,3 0 0 1 26,22 H18 A3,3 0 0 1 15,19 V11 A3,3 0 0 1 18,8 Z" />
        <text x="38" y="19" font-family="Microsoft YaHei, PingFang SC, Arial, sans-serif" font-size="13" font-weight="bold" fill="#1A3A5C">博物馆年度增量</text>
        <line x1="175" y1="15" x2="205" y2="15" stroke="#2E6B8F" stroke-width="3" />
        <circle cx="190" cy="15" r="4" fill="#2E6B8F" />
        <text x="215" y="19" font-family="Microsoft YaHei, PingFang SC, Arial, sans-serif" font-size="13" font-weight="bold" fill="#2E6B8F">游客年度变化</text>
        <text x="360" y="19" font-family="Microsoft YaHei, PingFang SC, Arial, sans-serif" font-size="13" fill="#6B7280">供给侧持续扩张，需求侧受外生冲击后快速修复</text>
    </g>
    
    <g id="page-footer">
        <text x="60" y="695" font-family="Microsoft YaHei, PingFang SC, Arial, sans-serif" font-size="12" fill="#9CA3AF">Source: 团队三点差分计算；单位见原始数据表</text>
        <text x="1220" y="695" text-anchor="end" font-family="Microsoft YaHei, PingFang SC, Arial, sans-serif" font-size="11" fill="#9CA3AF">09 / 12</text>
    </g>
</svg>